# 3ds Max Wavefront OBJ Exporter v0.97b - (c)2007 guruware
# File Created: 19.08.2011 23:22:48

mtllib road3.mtl

#
# object Plane01
#

v  323.4219 0.0000 -323.4220
v  -323.4219 0.0000 -323.4220
v  -323.4219 0.0000 323.4220
v  323.4219 0.0000 323.4220
v  512.0000 0.0000 -323.4220
v  512.0000 0.0000 323.4220
v  -512.0000 0.0000 323.4220
v  -512.0000 0.0000 -323.4220
v  512.0000 0.0000 -512.0000
v  323.4219 0.0000 -512.0000
v  323.4219 22.1291 -512.0000
v  512.0000 22.1291 -512.0000
v  323.4219 0.0000 512.0000
v  512.0000 0.0000 512.0000
v  512.0000 22.1291 512.0000
v  323.4219 22.1291 512.0000
v  -512.0000 0.0000 512.0000
v  -323.4219 0.0000 512.0000
v  -323.4219 22.1291 512.0000
v  -512.0000 22.1291 512.0000
v  -323.4219 0.0000 -512.0000
v  -512.0000 0.0000 -512.0000
v  -512.0000 22.1291 -512.0000
v  -323.4219 22.1291 -512.0000
v  323.4219 22.1291 -323.4220
v  512.0000 22.1291 -323.4220
v  512.0000 22.1291 323.4220
v  323.4219 22.1291 323.4220
v  -323.4219 22.1291 323.4220
v  -512.0000 22.1291 323.4220
v  -512.0000 22.1291 -323.4220
v  -323.4219 22.1291 -323.4220
# 32 vertices

vn 0.0000 1.0000 -0.0000
vn 0.0000 0.0000 -1.0000
vn 0.0000 0.0000 1.0000
vn -1.0000 0.0000 -0.0000
vn 1.0000 0.0000 -0.0000
# 5 vertex normals

vt 0.8155 0.8155 0.0005
vt 0.1845 0.8155 0.0005
vt 0.1845 0.1845 0.0005
vt 0.8155 0.1845 0.0005
vt 1.0110 0.8155 -21.9232
vt 0.8155 0.8155 0.9995
vt 0.8083 0.1845 23.9222
vt 0.9995 0.1845 0.9995
vt 0.0120 0.1845 23.9222
vt 0.1845 0.1845 0.9995
vt 0.1772 0.8155 -21.9232
vt 0.0005 0.8155 0.9995
vt 1.0000 1.0000 0.0000
vt 0.8158 1.0000 0.0000
vt 0.8158 0.0000 0.0000
vt 1.0000 0.0000 0.0000
vt 0.0000 0.0000 0.0000
vt 0.1842 0.0000 0.0000
vt 0.1842 1.0000 0.0000
vt 0.0000 1.0000 0.0000
vt 0.8155 0.9995 0.0005
vt 0.1845 0.9995 0.0005
vt 0.1845 0.0005 0.0005
vt 0.8155 0.0005 0.0005
vt 0.9995 0.9995 0.9995
vt 0.8155 0.9995 0.9995
vt 0.9995 0.8155 0.9995
vt 0.8155 0.0005 0.9995
vt 0.9995 0.0005 0.9995
vt 0.8155 0.1845 0.9995
vt 0.0005 0.0005 0.9995
vt 0.1845 0.0005 0.9995
vt 0.0005 0.1845 0.9995
vt 0.1845 0.9995 0.9995
vt 0.0005 0.9995 0.9995
vt 0.1845 0.8155 0.9995
vt 0.8158 0.1842 0.0000
vt 0.8158 0.8158 0.0000
vt 1.0000 0.8158 0.0000
vt 1.0000 0.1842 0.0000
vt 0.0000 0.1842 0.0000
vt 0.0000 0.8158 0.0000
vt 0.1842 0.8158 0.0000
vt 0.1842 0.1842 0.0000
# 44 texture coords

g Plane01
usemtl 01___Default
s 1
f 1/1/1 2/2/1 3/3/1 4/4/1 
f 5/5/1 1/6/1 4/7/1 6/8/1 
f 7/9/1 3/10/1 2/11/1 8/12/1 
s off
f 9/13/2 10/14/2 11/14/2 12/13/2 
f 13/15/3 14/16/3 15/16/3 16/15/3 
f 17/17/3 18/18/3 19/18/3 20/17/3 
f 21/19/2 22/20/2 23/20/2 24/19/2 
s 1
f 10/21/1 21/22/1 2/2/1 1/1/1 
f 18/23/1 13/24/1 4/4/1 3/3/1 
f 12/25/1 11/26/1 25/6/1 26/27/1 
f 16/28/1 15/29/1 27/8/1 28/30/1 
f 20/31/1 19/32/1 29/10/1 30/33/1 
f 24/34/1 23/35/1 31/12/1 32/36/1 
s off
f 13/15/4 16/15/4 28/37/4 4/37/4 
f 11/14/4 10/14/4 1/38/4 25/38/4 
f 9/13/5 12/13/5 26/39/5 5/39/5 
f 15/16/5 14/16/5 6/40/5 27/40/5 
f 17/17/4 20/17/4 30/41/4 7/41/4 
f 23/20/4 22/20/4 8/42/4 31/42/4 
f 21/19/5 24/19/5 32/43/5 2/43/5 
f 19/18/5 18/18/5 3/44/5 29/44/5 
f 28/30/2 27/8/2 6/8/2 4/7/2 
f 26/27/3 25/6/3 1/6/3 5/5/3 
f 30/33/2 29/10/2 3/10/2 7/9/2 
f 32/36/3 31/12/3 8/12/3 2/11/3 
# 25 polygons

